G75*
G70*
%OFA0B0*%
%FSLAX24Y24*%
%IPPOS*%
%LPD*%
%AMOC8*
5,1,8,0,0,1.08239X$1,22.5*
%
%ADD10C,0.0060*%
%ADD11C,0.0050*%
%ADD12C,0.0040*%
%ADD13C,0.0030*%
%ADD14C,0.0240*%
%ADD15R,0.0240X0.0340*%
%ADD16R,0.0340X0.0240*%
%ADD17C,0.0100*%
D10*
X009720Y008970D02*
X009720Y009470D01*
X009970Y009720D01*
X009720Y009970D01*
X009720Y010470D01*
X009970Y010720D01*
X009720Y010970D01*
X009720Y011470D01*
X009970Y011720D01*
X010470Y011720D01*
X010720Y011470D01*
X010720Y010970D01*
X010470Y010720D01*
X010720Y010470D01*
X010720Y009970D01*
X010470Y009720D01*
X010720Y009470D01*
X010720Y008970D01*
X010470Y008720D01*
X009970Y008720D01*
X009720Y008970D01*
X009970Y009720D02*
X010470Y009720D01*
X010470Y010720D02*
X009970Y010720D01*
X012470Y012870D02*
X012470Y013570D01*
X012472Y013587D01*
X012476Y013604D01*
X012483Y013620D01*
X012493Y013634D01*
X012506Y013647D01*
X012520Y013657D01*
X012536Y013664D01*
X012553Y013668D01*
X012570Y013670D01*
X012720Y013670D01*
X012770Y013620D01*
X014670Y013620D01*
X014720Y013670D01*
X014870Y013670D01*
X014887Y013668D01*
X014904Y013664D01*
X014920Y013657D01*
X014934Y013647D01*
X014947Y013634D01*
X014957Y013620D01*
X014964Y013604D01*
X014968Y013587D01*
X014970Y013570D01*
X014970Y012870D01*
X014968Y012853D01*
X014964Y012836D01*
X014957Y012820D01*
X014947Y012806D01*
X014934Y012793D01*
X014920Y012783D01*
X014904Y012776D01*
X014887Y012772D01*
X014870Y012770D01*
X014720Y012770D01*
X014670Y012820D01*
X012770Y012820D01*
X012720Y012770D01*
X012570Y012770D01*
X012553Y012772D01*
X012536Y012776D01*
X012520Y012783D01*
X012506Y012793D01*
X012493Y012806D01*
X012483Y012820D01*
X012476Y012836D01*
X012472Y012853D01*
X012470Y012870D01*
X012570Y014270D02*
X012720Y014270D01*
X012770Y014320D01*
X014670Y014320D01*
X014720Y014270D01*
X014870Y014270D01*
X014887Y014272D01*
X014904Y014276D01*
X014920Y014283D01*
X014934Y014293D01*
X014947Y014306D01*
X014957Y014320D01*
X014964Y014336D01*
X014968Y014353D01*
X014970Y014370D01*
X014970Y015070D01*
X014968Y015087D01*
X014964Y015104D01*
X014957Y015120D01*
X014947Y015134D01*
X014934Y015147D01*
X014920Y015157D01*
X014904Y015164D01*
X014887Y015168D01*
X014870Y015170D01*
X014720Y015170D01*
X014670Y015120D01*
X012770Y015120D01*
X012720Y015170D01*
X012570Y015170D01*
X012553Y015168D01*
X012536Y015164D01*
X012520Y015157D01*
X012506Y015147D01*
X012493Y015134D01*
X012483Y015120D01*
X012476Y015104D01*
X012472Y015087D01*
X012470Y015070D01*
X012470Y014370D01*
X012472Y014353D01*
X012476Y014336D01*
X012483Y014320D01*
X012493Y014306D01*
X012506Y014293D01*
X012520Y014283D01*
X012536Y014276D01*
X012553Y014272D01*
X012570Y014270D01*
X010720Y015970D02*
X010720Y016470D01*
X010470Y016720D01*
X009970Y016720D01*
X009720Y016470D01*
X009720Y015970D01*
X009970Y015720D01*
X010470Y015720D01*
X010720Y015970D01*
X010470Y016720D02*
X010720Y016970D01*
X010720Y017470D01*
X010470Y017720D01*
X009970Y017720D01*
X009720Y017470D01*
X009720Y016970D01*
X009970Y016720D01*
X009970Y017720D02*
X009720Y017970D01*
X009720Y018470D01*
X009970Y018720D01*
X010470Y018720D01*
X010720Y018470D01*
X010720Y017970D01*
X010470Y017720D01*
X012870Y020470D02*
X013570Y020470D01*
X013587Y020472D01*
X013604Y020476D01*
X013620Y020483D01*
X013634Y020493D01*
X013647Y020506D01*
X013657Y020520D01*
X013664Y020536D01*
X013668Y020553D01*
X013670Y020570D01*
X013670Y020720D01*
X013620Y020770D01*
X013620Y022670D01*
X013670Y022720D01*
X013670Y022870D01*
X013668Y022887D01*
X013664Y022904D01*
X013657Y022920D01*
X013647Y022934D01*
X013634Y022947D01*
X013620Y022957D01*
X013604Y022964D01*
X013587Y022968D01*
X013570Y022970D01*
X012870Y022970D01*
X012853Y022968D01*
X012836Y022964D01*
X012820Y022957D01*
X012806Y022947D01*
X012793Y022934D01*
X012783Y022920D01*
X012776Y022904D01*
X012772Y022887D01*
X012770Y022870D01*
X012770Y022720D01*
X012820Y022670D01*
X012820Y020770D01*
X012770Y020720D01*
X012770Y020570D01*
X012772Y020553D01*
X012776Y020536D01*
X012783Y020520D01*
X012793Y020506D01*
X012806Y020493D01*
X012820Y020483D01*
X012836Y020476D01*
X012853Y020472D01*
X012870Y020470D01*
X015220Y020470D02*
X015220Y020970D01*
X015470Y021220D01*
X015970Y021220D01*
X016220Y020970D01*
X016220Y020470D01*
X015970Y020220D01*
X016220Y019970D01*
X016220Y019470D01*
X015970Y019220D01*
X015470Y019220D01*
X015220Y019470D01*
X015220Y019970D01*
X015470Y020220D01*
X015220Y020470D01*
X015470Y020220D02*
X015970Y020220D01*
X015970Y021220D02*
X016220Y021470D01*
X016220Y021970D01*
X015970Y022220D01*
X016220Y022470D01*
X016220Y022970D01*
X015970Y023220D01*
X016220Y023470D01*
X016220Y023970D01*
X015970Y024220D01*
X015470Y024220D01*
X015220Y023970D01*
X015220Y023470D01*
X015470Y023220D01*
X015970Y023220D01*
X015470Y023220D02*
X015220Y022970D01*
X015220Y022470D01*
X015470Y022220D01*
X015970Y022220D01*
X015470Y022220D02*
X015220Y021970D01*
X015220Y021470D01*
X015470Y021220D01*
X017600Y023570D02*
X019840Y023570D01*
X020770Y022720D02*
X020770Y022570D01*
X020772Y022553D01*
X020776Y022536D01*
X020783Y022520D01*
X020793Y022506D01*
X020806Y022493D01*
X020820Y022483D01*
X020836Y022476D01*
X020853Y022472D01*
X020870Y022470D01*
X021570Y022470D01*
X021587Y022472D01*
X021604Y022476D01*
X021620Y022483D01*
X021634Y022493D01*
X021647Y022506D01*
X021657Y022520D01*
X021664Y022536D01*
X021668Y022553D01*
X021670Y022570D01*
X021670Y022720D01*
X021620Y022770D01*
X021620Y024670D01*
X021670Y024720D01*
X021670Y024870D01*
X021668Y024887D01*
X021664Y024904D01*
X021657Y024920D01*
X021647Y024934D01*
X021634Y024947D01*
X021620Y024957D01*
X021604Y024964D01*
X021587Y024968D01*
X021570Y024970D01*
X020870Y024970D01*
X020853Y024968D01*
X020836Y024964D01*
X020820Y024957D01*
X020806Y024947D01*
X020793Y024934D01*
X020783Y024920D01*
X020776Y024904D01*
X020772Y024887D01*
X020770Y024870D01*
X020770Y024720D01*
X020820Y024670D01*
X020820Y022770D01*
X020770Y022720D01*
X022270Y022220D02*
X022320Y022270D01*
X022320Y024170D01*
X022270Y024220D01*
X022270Y024370D01*
X022272Y024387D01*
X022276Y024404D01*
X022283Y024420D01*
X022293Y024434D01*
X022306Y024447D01*
X022320Y024457D01*
X022336Y024464D01*
X022353Y024468D01*
X022370Y024470D01*
X023070Y024470D01*
X023087Y024468D01*
X023104Y024464D01*
X023120Y024457D01*
X023134Y024447D01*
X023147Y024434D01*
X023157Y024420D01*
X023164Y024404D01*
X023168Y024387D01*
X023170Y024370D01*
X023170Y024220D01*
X023120Y024170D01*
X023120Y022270D01*
X023170Y022220D01*
X023170Y022070D01*
X023168Y022053D01*
X023164Y022036D01*
X023157Y022020D01*
X023147Y022006D01*
X023134Y021993D01*
X023120Y021983D01*
X023104Y021976D01*
X023087Y021972D01*
X023070Y021970D01*
X022370Y021970D01*
X022353Y021972D01*
X022336Y021976D01*
X022320Y021983D01*
X022306Y021993D01*
X022293Y022006D01*
X022283Y022020D01*
X022276Y022036D01*
X022272Y022053D01*
X022270Y022070D01*
X022270Y022220D01*
X023270Y021720D02*
X023270Y021570D01*
X023272Y021553D01*
X023276Y021536D01*
X023283Y021520D01*
X023293Y021506D01*
X023306Y021493D01*
X023320Y021483D01*
X023336Y021476D01*
X023353Y021472D01*
X023370Y021470D01*
X024070Y021470D01*
X024087Y021472D01*
X024104Y021476D01*
X024120Y021483D01*
X024134Y021493D01*
X024147Y021506D01*
X024157Y021520D01*
X024164Y021536D01*
X024168Y021553D01*
X024170Y021570D01*
X024170Y021720D01*
X024120Y021770D01*
X024120Y023670D01*
X024170Y023720D01*
X024170Y023870D01*
X024168Y023887D01*
X024164Y023904D01*
X024157Y023920D01*
X024147Y023934D01*
X024134Y023947D01*
X024120Y023957D01*
X024104Y023964D01*
X024087Y023968D01*
X024070Y023970D01*
X023370Y023970D01*
X023353Y023968D01*
X023336Y023964D01*
X023320Y023957D01*
X023306Y023947D01*
X023293Y023934D01*
X023283Y023920D01*
X023276Y023904D01*
X023272Y023887D01*
X023270Y023870D01*
X023270Y023720D01*
X023320Y023670D01*
X023320Y021770D01*
X023270Y021720D01*
X023070Y016970D02*
X022370Y016970D01*
X022353Y016968D01*
X022336Y016964D01*
X022320Y016957D01*
X022306Y016947D01*
X022293Y016934D01*
X022283Y016920D01*
X022276Y016904D01*
X022272Y016887D01*
X022270Y016870D01*
X022270Y016720D01*
X022320Y016670D01*
X022320Y014770D01*
X022270Y014720D01*
X022270Y014570D01*
X022272Y014553D01*
X022276Y014536D01*
X022283Y014520D01*
X022293Y014506D01*
X022306Y014493D01*
X022320Y014483D01*
X022336Y014476D01*
X022353Y014472D01*
X022370Y014470D01*
X023070Y014470D01*
X023087Y014472D01*
X023104Y014476D01*
X023120Y014483D01*
X023134Y014493D01*
X023147Y014506D01*
X023157Y014520D01*
X023164Y014536D01*
X023168Y014553D01*
X023170Y014570D01*
X023170Y014720D01*
X023120Y014770D01*
X023120Y016670D01*
X023170Y016720D01*
X023170Y016870D01*
X023168Y016887D01*
X023164Y016904D01*
X023157Y016920D01*
X023147Y016934D01*
X023134Y016947D01*
X023120Y016957D01*
X023104Y016964D01*
X023087Y016968D01*
X023070Y016970D01*
X023370Y015970D02*
X024070Y015970D01*
X024087Y015968D01*
X024104Y015964D01*
X024120Y015957D01*
X024134Y015947D01*
X024147Y015934D01*
X024157Y015920D01*
X024164Y015904D01*
X024168Y015887D01*
X024170Y015870D01*
X024170Y015720D01*
X024120Y015670D01*
X024120Y013770D01*
X024170Y013720D01*
X024170Y013570D01*
X024168Y013553D01*
X024164Y013536D01*
X024157Y013520D01*
X024147Y013506D01*
X024134Y013493D01*
X024120Y013483D01*
X024104Y013476D01*
X024087Y013472D01*
X024070Y013470D01*
X023370Y013470D01*
X023353Y013472D01*
X023336Y013476D01*
X023320Y013483D01*
X023306Y013493D01*
X023293Y013506D01*
X023283Y013520D01*
X023276Y013536D01*
X023272Y013553D01*
X023270Y013570D01*
X023270Y013720D01*
X023320Y013770D01*
X023320Y015670D01*
X023270Y015720D01*
X023270Y015870D01*
X023272Y015887D01*
X023276Y015904D01*
X023283Y015920D01*
X023293Y015934D01*
X023306Y015947D01*
X023320Y015957D01*
X023336Y015964D01*
X023353Y015968D01*
X023370Y015970D01*
X024370Y014970D02*
X025070Y014970D01*
X025087Y014968D01*
X025104Y014964D01*
X025120Y014957D01*
X025134Y014947D01*
X025147Y014934D01*
X025157Y014920D01*
X025164Y014904D01*
X025168Y014887D01*
X025170Y014870D01*
X025170Y014720D01*
X025120Y014670D01*
X025120Y012770D01*
X025170Y012720D01*
X025170Y012570D01*
X025168Y012553D01*
X025164Y012536D01*
X025157Y012520D01*
X025147Y012506D01*
X025134Y012493D01*
X025120Y012483D01*
X025104Y012476D01*
X025087Y012472D01*
X025070Y012470D01*
X024370Y012470D01*
X024353Y012472D01*
X024336Y012476D01*
X024320Y012483D01*
X024306Y012493D01*
X024293Y012506D01*
X024283Y012520D01*
X024276Y012536D01*
X024272Y012553D01*
X024270Y012570D01*
X024270Y012720D01*
X024320Y012770D01*
X024320Y014670D01*
X024270Y014720D01*
X024270Y014870D01*
X024272Y014887D01*
X024276Y014904D01*
X024283Y014920D01*
X024293Y014934D01*
X024306Y014947D01*
X024320Y014957D01*
X024336Y014964D01*
X024353Y014968D01*
X024370Y014970D01*
X019700Y009870D02*
X018840Y009870D01*
X018600Y009870D01*
X017600Y009870D01*
X018600Y009870D02*
X018602Y009891D01*
X018607Y009911D01*
X018616Y009930D01*
X018628Y009947D01*
X018643Y009962D01*
X018660Y009974D01*
X018679Y009983D01*
X018699Y009988D01*
X018720Y009990D01*
X018741Y009988D01*
X018761Y009983D01*
X018780Y009974D01*
X018797Y009962D01*
X018812Y009947D01*
X018824Y009930D01*
X018833Y009911D01*
X018838Y009891D01*
X018840Y009870D01*
X010470Y022220D02*
X009970Y022220D01*
X009720Y022470D01*
X009720Y022970D01*
X009970Y023220D01*
X009720Y023470D01*
X009720Y023970D01*
X009970Y024220D01*
X009720Y024470D01*
X009720Y024970D01*
X009970Y025220D01*
X010470Y025220D01*
X010720Y024970D01*
X010720Y024470D01*
X010470Y024220D01*
X010720Y023970D01*
X010720Y023470D01*
X010470Y023220D01*
X010720Y022970D01*
X010720Y022470D01*
X010470Y022220D01*
X010470Y023220D02*
X009970Y023220D01*
X009970Y024220D02*
X010470Y024220D01*
X012470Y025370D02*
X012470Y026070D01*
X012472Y026087D01*
X012476Y026104D01*
X012483Y026120D01*
X012493Y026134D01*
X012506Y026147D01*
X012520Y026157D01*
X012536Y026164D01*
X012553Y026168D01*
X012570Y026170D01*
X012720Y026170D01*
X012770Y026120D01*
X014670Y026120D01*
X014720Y026170D01*
X014870Y026170D01*
X014887Y026168D01*
X014904Y026164D01*
X014920Y026157D01*
X014934Y026147D01*
X014947Y026134D01*
X014957Y026120D01*
X014964Y026104D01*
X014968Y026087D01*
X014970Y026070D01*
X014970Y025370D01*
X014968Y025353D01*
X014964Y025336D01*
X014957Y025320D01*
X014947Y025306D01*
X014934Y025293D01*
X014920Y025283D01*
X014904Y025276D01*
X014887Y025272D01*
X014870Y025270D01*
X014720Y025270D01*
X014670Y025320D01*
X012770Y025320D01*
X012720Y025270D01*
X012570Y025270D01*
X012553Y025272D01*
X012536Y025276D01*
X012520Y025283D01*
X012506Y025293D01*
X012493Y025306D01*
X012483Y025320D01*
X012476Y025336D01*
X012472Y025353D01*
X012470Y025370D01*
X006670Y024720D02*
X006670Y024520D01*
X004770Y024520D01*
X004870Y024720D01*
X005470Y024720D01*
X005470Y028720D01*
X006670Y028720D01*
X006670Y024720D01*
X005470Y024720D01*
X005570Y024940D02*
X005570Y026540D01*
X006570Y026540D01*
X006570Y024940D01*
X005570Y024940D01*
X005828Y025162D02*
X005850Y025140D01*
X005873Y025121D01*
X005899Y025105D01*
X005926Y025092D01*
X005955Y025082D01*
X005984Y025075D01*
X006015Y025071D01*
X006045Y025071D01*
X006075Y025075D01*
X006105Y025082D01*
X006133Y025092D01*
X006161Y025105D01*
X006186Y025121D01*
X006210Y025140D01*
X006170Y025130D02*
X005920Y026330D01*
X005970Y026380D02*
X006220Y025180D01*
X005842Y025144D02*
X005807Y025193D01*
X005776Y025245D01*
X005748Y025298D01*
X005723Y025353D01*
X005702Y025409D01*
X005684Y025467D01*
X005670Y025525D01*
X005660Y025585D01*
X005653Y025645D01*
X005650Y025705D01*
X005651Y025765D01*
X005656Y025825D01*
X005664Y025885D01*
X005676Y025944D01*
X005692Y026002D01*
X005712Y026059D01*
X005735Y026115D01*
X005761Y026169D01*
X005791Y026221D01*
X005824Y026272D01*
X005860Y026320D01*
X005846Y026303D02*
X005863Y026329D01*
X005882Y026352D01*
X005905Y026372D01*
X005929Y026389D01*
X005956Y026403D01*
X005985Y026414D01*
X006014Y026420D01*
X006044Y026423D01*
X006075Y026422D01*
X006104Y026417D01*
X006133Y026408D01*
X006161Y026395D01*
X006186Y026379D01*
X006210Y026360D01*
X006570Y026910D02*
X005570Y026910D01*
X005570Y028510D01*
X006570Y028510D01*
X006570Y026910D01*
X006220Y027150D02*
X005970Y028350D01*
X005920Y028300D02*
X006170Y027100D01*
X006210Y027110D02*
X006186Y027091D01*
X006161Y027075D01*
X006133Y027062D01*
X006105Y027052D01*
X006075Y027045D01*
X006045Y027041D01*
X006015Y027041D01*
X005984Y027045D01*
X005955Y027052D01*
X005926Y027062D01*
X005899Y027075D01*
X005873Y027091D01*
X005850Y027110D01*
X005828Y027132D01*
X006212Y027108D02*
X006252Y027145D01*
X006289Y027185D01*
X006324Y027227D01*
X006355Y027271D01*
X006384Y027317D01*
X006409Y027365D01*
X006432Y027415D01*
X006450Y027466D01*
X006466Y027518D01*
X006477Y027572D01*
X006485Y027625D01*
X006490Y027680D01*
X006491Y027734D01*
X006488Y027789D01*
X006482Y027843D01*
X006472Y027896D01*
X006458Y027949D01*
X006441Y028000D01*
X006420Y028051D01*
X006397Y028100D01*
X006369Y028147D01*
X006339Y028192D01*
X006306Y028236D01*
X006270Y028276D01*
X006231Y028315D01*
X006190Y028350D01*
X006210Y028330D02*
X006186Y028349D01*
X006161Y028365D01*
X006133Y028378D01*
X006104Y028387D01*
X006075Y028392D01*
X006044Y028393D01*
X006014Y028390D01*
X005985Y028384D01*
X005956Y028373D01*
X005929Y028359D01*
X005905Y028342D01*
X005882Y028322D01*
X005863Y028299D01*
X005846Y028273D01*
X005470Y028720D02*
X004470Y028720D01*
X004470Y028360D01*
X004320Y028360D02*
X004320Y028510D01*
X002520Y028510D01*
X001770Y028510D01*
X001770Y026910D01*
X001770Y026540D01*
X001770Y024940D01*
X002520Y024940D01*
X002520Y026540D01*
X004320Y026540D01*
X004320Y026390D01*
X004470Y026390D02*
X004470Y027060D01*
X004320Y027060D02*
X004320Y026910D01*
X002520Y026910D01*
X002520Y028510D01*
X002770Y028360D02*
X004020Y028360D01*
X004470Y028720D02*
X001770Y028720D01*
X001770Y028510D01*
X002770Y028360D02*
X002770Y027060D01*
X004020Y027060D01*
X004020Y026390D02*
X002770Y026390D01*
X002770Y025090D01*
X004020Y025090D01*
X004320Y025090D02*
X004320Y024940D01*
X002520Y024940D01*
X002620Y024720D02*
X002170Y024720D01*
X001770Y024720D01*
X001770Y024940D01*
X002170Y024720D02*
X002070Y024520D01*
X002720Y024520D01*
X002620Y024720D01*
X004470Y024720D01*
X004470Y025090D01*
X004470Y024720D02*
X004870Y024720D01*
X006212Y025138D02*
X006252Y025175D01*
X006289Y025215D01*
X006324Y025257D01*
X006355Y025301D01*
X006384Y025347D01*
X006409Y025395D01*
X006431Y025445D01*
X006450Y025496D01*
X006466Y025548D01*
X006477Y025602D01*
X006485Y025655D01*
X006490Y025710D01*
X006491Y025764D01*
X006488Y025818D01*
X006482Y025873D01*
X006472Y025926D01*
X006458Y025979D01*
X006441Y026030D01*
X006420Y026081D01*
X006397Y026130D01*
X006369Y026177D01*
X006339Y026222D01*
X006306Y026265D01*
X006270Y026306D01*
X006231Y026345D01*
X006190Y026380D01*
X005842Y027114D02*
X005807Y027163D01*
X005776Y027215D01*
X005748Y027268D01*
X005723Y027323D01*
X005702Y027379D01*
X005684Y027437D01*
X005670Y027495D01*
X005660Y027555D01*
X005653Y027615D01*
X005650Y027675D01*
X005651Y027735D01*
X005656Y027795D01*
X005664Y027855D01*
X005676Y027914D01*
X005692Y027972D01*
X005712Y028029D01*
X005735Y028085D01*
X005761Y028139D01*
X005791Y028191D01*
X005824Y028242D01*
X005860Y028290D01*
X002520Y026910D02*
X001770Y026910D01*
X001770Y026540D02*
X002520Y026540D01*
X001770Y023220D02*
X004470Y023220D01*
X004470Y022860D01*
X004320Y022860D02*
X004320Y023010D01*
X002520Y023010D01*
X001770Y023010D01*
X001770Y021410D01*
X001770Y021040D01*
X001770Y019440D01*
X002520Y019440D01*
X002520Y021040D01*
X004320Y021040D01*
X004320Y020890D01*
X004470Y020890D02*
X004470Y021560D01*
X004320Y021560D02*
X004320Y021410D01*
X002520Y021410D01*
X002520Y023010D01*
X002770Y022860D02*
X004020Y022860D01*
X004470Y023220D02*
X005470Y023220D01*
X006670Y023220D01*
X006670Y019220D01*
X006670Y019020D01*
X004770Y019020D01*
X004870Y019220D01*
X005470Y019220D01*
X005470Y023220D01*
X005570Y023010D02*
X006570Y023010D01*
X006570Y021410D01*
X005570Y021410D01*
X005570Y023010D01*
X005920Y022800D02*
X006170Y021600D01*
X006220Y021650D02*
X005970Y022850D01*
X005846Y022773D02*
X005863Y022799D01*
X005882Y022822D01*
X005905Y022842D01*
X005929Y022859D01*
X005956Y022873D01*
X005985Y022884D01*
X006014Y022890D01*
X006044Y022893D01*
X006075Y022892D01*
X006104Y022887D01*
X006133Y022878D01*
X006161Y022865D01*
X006186Y022849D01*
X006210Y022830D01*
X005860Y022790D02*
X005824Y022742D01*
X005791Y022691D01*
X005761Y022639D01*
X005735Y022585D01*
X005712Y022529D01*
X005692Y022472D01*
X005676Y022414D01*
X005664Y022355D01*
X005656Y022295D01*
X005651Y022235D01*
X005650Y022175D01*
X005653Y022115D01*
X005660Y022055D01*
X005670Y021995D01*
X005684Y021937D01*
X005702Y021879D01*
X005723Y021823D01*
X005748Y021768D01*
X005776Y021715D01*
X005807Y021663D01*
X005842Y021614D01*
X005828Y021632D02*
X005850Y021610D01*
X005873Y021591D01*
X005899Y021575D01*
X005926Y021562D01*
X005955Y021552D01*
X005984Y021545D01*
X006015Y021541D01*
X006045Y021541D01*
X006075Y021545D01*
X006105Y021552D01*
X006133Y021562D01*
X006161Y021575D01*
X006186Y021591D01*
X006210Y021610D01*
X006570Y021040D02*
X005570Y021040D01*
X005570Y019440D01*
X006570Y019440D01*
X006570Y021040D01*
X006210Y020860D02*
X006186Y020879D01*
X006161Y020895D01*
X006133Y020908D01*
X006104Y020917D01*
X006075Y020922D01*
X006044Y020923D01*
X006014Y020920D01*
X005985Y020914D01*
X005956Y020903D01*
X005929Y020889D01*
X005905Y020872D01*
X005882Y020852D01*
X005863Y020829D01*
X005846Y020803D01*
X005920Y020830D02*
X006170Y019630D01*
X006220Y019680D02*
X005970Y020880D01*
X006190Y020880D02*
X006231Y020845D01*
X006270Y020806D01*
X006306Y020765D01*
X006339Y020722D01*
X006369Y020677D01*
X006397Y020630D01*
X006420Y020581D01*
X006441Y020530D01*
X006458Y020479D01*
X006472Y020426D01*
X006482Y020373D01*
X006488Y020318D01*
X006491Y020264D01*
X006490Y020210D01*
X006485Y020155D01*
X006477Y020102D01*
X006466Y020048D01*
X006450Y019996D01*
X006431Y019945D01*
X006409Y019895D01*
X006384Y019847D01*
X006355Y019801D01*
X006324Y019757D01*
X006289Y019715D01*
X006252Y019675D01*
X006212Y019638D01*
X006210Y019640D02*
X006186Y019621D01*
X006161Y019605D01*
X006133Y019592D01*
X006105Y019582D01*
X006075Y019575D01*
X006045Y019571D01*
X006015Y019571D01*
X005984Y019575D01*
X005955Y019582D01*
X005926Y019592D01*
X005899Y019605D01*
X005873Y019621D01*
X005850Y019640D01*
X005828Y019662D01*
X005470Y019220D02*
X006670Y019220D01*
X006670Y018220D02*
X005470Y018220D01*
X005470Y014220D01*
X004870Y014220D01*
X004470Y014220D01*
X004470Y014590D01*
X004320Y014590D02*
X004320Y014440D01*
X002520Y014440D01*
X001770Y014440D01*
X001770Y014220D01*
X002170Y014220D01*
X002620Y014220D01*
X004470Y014220D01*
X004770Y014020D02*
X004870Y014220D01*
X004770Y014020D02*
X006670Y014020D01*
X006670Y014220D01*
X006670Y018220D01*
X006570Y018010D02*
X006570Y016410D01*
X005570Y016410D01*
X005570Y018010D01*
X006570Y018010D01*
X006210Y017830D02*
X006186Y017849D01*
X006161Y017865D01*
X006133Y017878D01*
X006104Y017887D01*
X006075Y017892D01*
X006044Y017893D01*
X006014Y017890D01*
X005985Y017884D01*
X005956Y017873D01*
X005929Y017859D01*
X005905Y017842D01*
X005882Y017822D01*
X005863Y017799D01*
X005846Y017773D01*
X005920Y017800D02*
X006170Y016600D01*
X006220Y016650D02*
X005970Y017850D01*
X005470Y018220D02*
X004470Y018220D01*
X004470Y017860D01*
X004320Y017860D02*
X004320Y018010D01*
X002520Y018010D01*
X001770Y018010D01*
X001770Y016410D01*
X001770Y016040D01*
X001770Y014440D01*
X002170Y014220D02*
X002070Y014020D01*
X002720Y014020D01*
X002620Y014220D01*
X002520Y014440D02*
X002520Y016040D01*
X004320Y016040D01*
X004320Y015890D01*
X004470Y015890D02*
X004470Y016560D01*
X004320Y016560D02*
X004320Y016410D01*
X002520Y016410D01*
X002520Y018010D01*
X002770Y017860D02*
X004020Y017860D01*
X004470Y018220D02*
X001770Y018220D01*
X001770Y018010D01*
X002770Y017860D02*
X002770Y016560D01*
X004020Y016560D01*
X004020Y015890D02*
X002770Y015890D01*
X002770Y014590D01*
X004020Y014590D01*
X005470Y014220D02*
X006670Y014220D01*
X006570Y014440D02*
X005570Y014440D01*
X005570Y016040D01*
X006570Y016040D01*
X006570Y014440D01*
X006220Y014680D02*
X005970Y015880D01*
X005920Y015830D02*
X006170Y014630D01*
X006210Y014640D02*
X006186Y014621D01*
X006161Y014605D01*
X006133Y014592D01*
X006105Y014582D01*
X006075Y014575D01*
X006045Y014571D01*
X006015Y014571D01*
X005984Y014575D01*
X005955Y014582D01*
X005926Y014592D01*
X005899Y014605D01*
X005873Y014621D01*
X005850Y014640D01*
X005828Y014662D01*
X006212Y014638D02*
X006252Y014675D01*
X006289Y014715D01*
X006324Y014757D01*
X006355Y014801D01*
X006384Y014847D01*
X006409Y014895D01*
X006431Y014945D01*
X006450Y014996D01*
X006466Y015048D01*
X006477Y015102D01*
X006485Y015155D01*
X006490Y015210D01*
X006491Y015264D01*
X006488Y015318D01*
X006482Y015373D01*
X006472Y015426D01*
X006458Y015479D01*
X006441Y015530D01*
X006420Y015581D01*
X006397Y015630D01*
X006369Y015677D01*
X006339Y015722D01*
X006306Y015765D01*
X006270Y015806D01*
X006231Y015845D01*
X006190Y015880D01*
X006210Y015860D02*
X006186Y015879D01*
X006161Y015895D01*
X006133Y015908D01*
X006104Y015917D01*
X006075Y015922D01*
X006044Y015923D01*
X006014Y015920D01*
X005985Y015914D01*
X005956Y015903D01*
X005929Y015889D01*
X005905Y015872D01*
X005882Y015852D01*
X005863Y015829D01*
X005846Y015803D01*
X005860Y015820D02*
X005824Y015772D01*
X005791Y015721D01*
X005761Y015669D01*
X005735Y015615D01*
X005712Y015559D01*
X005692Y015502D01*
X005676Y015444D01*
X005664Y015385D01*
X005656Y015325D01*
X005651Y015265D01*
X005650Y015205D01*
X005653Y015145D01*
X005660Y015085D01*
X005670Y015025D01*
X005684Y014967D01*
X005702Y014909D01*
X005723Y014853D01*
X005748Y014798D01*
X005776Y014745D01*
X005807Y014693D01*
X005842Y014644D01*
X005828Y016632D02*
X005850Y016610D01*
X005873Y016591D01*
X005899Y016575D01*
X005926Y016562D01*
X005955Y016552D01*
X005984Y016545D01*
X006015Y016541D01*
X006045Y016541D01*
X006075Y016545D01*
X006105Y016552D01*
X006133Y016562D01*
X006161Y016575D01*
X006186Y016591D01*
X006210Y016610D01*
X005842Y016614D02*
X005807Y016663D01*
X005776Y016715D01*
X005748Y016768D01*
X005723Y016823D01*
X005702Y016879D01*
X005684Y016937D01*
X005670Y016995D01*
X005660Y017055D01*
X005653Y017115D01*
X005650Y017175D01*
X005651Y017235D01*
X005656Y017295D01*
X005664Y017355D01*
X005676Y017414D01*
X005692Y017472D01*
X005712Y017529D01*
X005735Y017585D01*
X005761Y017639D01*
X005791Y017691D01*
X005824Y017742D01*
X005860Y017790D01*
X006190Y017850D02*
X006231Y017815D01*
X006270Y017776D01*
X006306Y017736D01*
X006339Y017692D01*
X006369Y017647D01*
X006397Y017600D01*
X006420Y017551D01*
X006441Y017500D01*
X006458Y017449D01*
X006472Y017396D01*
X006482Y017343D01*
X006488Y017289D01*
X006491Y017234D01*
X006490Y017180D01*
X006485Y017125D01*
X006477Y017072D01*
X006466Y017018D01*
X006450Y016966D01*
X006432Y016915D01*
X006409Y016865D01*
X006384Y016817D01*
X006355Y016771D01*
X006324Y016727D01*
X006289Y016685D01*
X006252Y016645D01*
X006212Y016608D01*
X004870Y019220D02*
X004470Y019220D01*
X004470Y019590D01*
X004320Y019590D02*
X004320Y019440D01*
X002520Y019440D01*
X002620Y019220D02*
X002720Y019020D01*
X002070Y019020D01*
X002170Y019220D01*
X002620Y019220D01*
X004470Y019220D01*
X004020Y019590D02*
X002770Y019590D01*
X002770Y020890D01*
X004020Y020890D01*
X004020Y021560D02*
X002770Y021560D01*
X002770Y022860D01*
X001770Y023010D02*
X001770Y023220D01*
X001770Y021410D02*
X002520Y021410D01*
X002520Y021040D02*
X001770Y021040D01*
X001770Y019440D02*
X001770Y019220D01*
X002170Y019220D01*
X002520Y016410D02*
X001770Y016410D01*
X001770Y016040D02*
X002520Y016040D01*
X005842Y019644D02*
X005807Y019693D01*
X005776Y019745D01*
X005748Y019798D01*
X005723Y019853D01*
X005702Y019909D01*
X005684Y019967D01*
X005670Y020025D01*
X005660Y020085D01*
X005653Y020145D01*
X005650Y020205D01*
X005651Y020265D01*
X005656Y020325D01*
X005664Y020385D01*
X005676Y020444D01*
X005692Y020502D01*
X005712Y020559D01*
X005735Y020615D01*
X005761Y020669D01*
X005791Y020721D01*
X005824Y020772D01*
X005860Y020820D01*
X006212Y021608D02*
X006252Y021645D01*
X006289Y021685D01*
X006324Y021727D01*
X006355Y021771D01*
X006384Y021817D01*
X006409Y021865D01*
X006432Y021915D01*
X006450Y021966D01*
X006466Y022018D01*
X006477Y022072D01*
X006485Y022125D01*
X006490Y022180D01*
X006491Y022234D01*
X006488Y022289D01*
X006482Y022343D01*
X006472Y022396D01*
X006458Y022449D01*
X006441Y022500D01*
X006420Y022551D01*
X006397Y022600D01*
X006369Y022647D01*
X006339Y022692D01*
X006306Y022736D01*
X006270Y022776D01*
X006231Y022815D01*
X006190Y022850D01*
D11*
X005195Y022855D02*
X005195Y022555D01*
X005195Y022705D02*
X004745Y022705D01*
X004895Y022555D01*
X004895Y020855D02*
X004820Y020855D01*
X004745Y020780D01*
X004745Y020630D01*
X004820Y020555D01*
X004895Y020855D02*
X005195Y020555D01*
X005195Y020855D01*
X005195Y017855D02*
X005195Y017555D01*
X005195Y017705D02*
X004745Y017705D01*
X004895Y017555D01*
X004895Y015855D02*
X004820Y015855D01*
X004745Y015780D01*
X004745Y015630D01*
X004820Y015555D01*
X004895Y015855D02*
X005195Y015555D01*
X005195Y015855D01*
X005195Y026055D02*
X004895Y026355D01*
X004820Y026355D01*
X004745Y026280D01*
X004745Y026130D01*
X004820Y026055D01*
X005195Y026055D02*
X005195Y026355D01*
X005195Y028055D02*
X005195Y028355D01*
X005195Y028205D02*
X004745Y028205D01*
X004895Y028055D01*
X025204Y027614D02*
X025178Y027673D01*
X025149Y027730D01*
X025117Y027785D01*
X025081Y027839D01*
X025042Y027890D01*
X024999Y027938D01*
X024954Y027984D01*
X024907Y028027D01*
X024857Y028068D01*
X024804Y028105D01*
X024749Y028138D01*
X024693Y028169D01*
X024634Y028196D01*
X024574Y028219D01*
X024513Y028239D01*
X024451Y028255D01*
X024387Y028267D01*
X024324Y028275D01*
X024260Y028279D01*
X024195Y028280D01*
X024131Y028276D01*
X024067Y028269D01*
X024004Y028258D01*
X023941Y028243D01*
X023880Y028224D01*
X023819Y028201D01*
X023761Y028175D01*
X023704Y028146D01*
X023648Y028113D01*
X023595Y028076D01*
X023545Y028037D01*
X023496Y027994D01*
X023451Y027949D01*
X023408Y027901D01*
X023368Y027851D01*
X023331Y027798D01*
X023298Y027743D01*
X023268Y027686D01*
X023241Y027627D01*
X023218Y027567D01*
X023199Y027506D01*
X023184Y027443D01*
X023172Y027380D01*
X023164Y027316D01*
X023160Y027252D01*
X023160Y027188D01*
X023164Y027124D01*
X023172Y027060D01*
X023184Y026997D01*
X023199Y026934D01*
X023218Y026873D01*
X023241Y026813D01*
X023268Y026754D01*
X023298Y026697D01*
X023331Y026642D01*
X023368Y026589D01*
X023408Y026539D01*
X023451Y026491D01*
X023496Y026446D01*
X023545Y026403D01*
X023595Y026364D01*
X023648Y026327D01*
X023704Y026294D01*
X023761Y026265D01*
X023819Y026239D01*
X023880Y026216D01*
X023941Y026197D01*
X024004Y026182D01*
X024067Y026171D01*
X024131Y026164D01*
X024195Y026160D01*
X024260Y026161D01*
X024324Y026165D01*
X024387Y026173D01*
X024451Y026185D01*
X024513Y026201D01*
X024574Y026221D01*
X024634Y026244D01*
X024693Y026271D01*
X024749Y026302D01*
X024804Y026335D01*
X024857Y026372D01*
X024907Y026413D01*
X024954Y026456D01*
X024999Y026502D01*
X025042Y026550D01*
X025081Y026601D01*
X025117Y026655D01*
X025149Y026710D01*
X025178Y026767D01*
X025204Y026826D01*
X025204Y027614D01*
X025204Y019114D02*
X025204Y018326D01*
X025178Y018267D01*
X025149Y018210D01*
X025117Y018155D01*
X025081Y018101D01*
X025042Y018050D01*
X024999Y018002D01*
X024954Y017956D01*
X024907Y017913D01*
X024857Y017872D01*
X024804Y017835D01*
X024749Y017802D01*
X024693Y017771D01*
X024634Y017744D01*
X024574Y017721D01*
X024513Y017701D01*
X024451Y017685D01*
X024387Y017673D01*
X024324Y017665D01*
X024260Y017661D01*
X024195Y017660D01*
X024131Y017664D01*
X024067Y017671D01*
X024004Y017682D01*
X023941Y017697D01*
X023880Y017716D01*
X023819Y017739D01*
X023761Y017765D01*
X023704Y017794D01*
X023648Y017827D01*
X023595Y017864D01*
X023545Y017903D01*
X023496Y017946D01*
X023451Y017991D01*
X023408Y018039D01*
X023368Y018089D01*
X023331Y018142D01*
X023298Y018197D01*
X023268Y018254D01*
X023241Y018313D01*
X023218Y018373D01*
X023199Y018434D01*
X023184Y018497D01*
X023172Y018560D01*
X023164Y018624D01*
X023160Y018688D01*
X023160Y018752D01*
X023164Y018816D01*
X023172Y018880D01*
X023184Y018943D01*
X023199Y019006D01*
X023218Y019067D01*
X023241Y019127D01*
X023268Y019186D01*
X023298Y019243D01*
X023331Y019298D01*
X023368Y019351D01*
X023408Y019401D01*
X023451Y019449D01*
X023496Y019494D01*
X023545Y019537D01*
X023595Y019576D01*
X023648Y019613D01*
X023704Y019646D01*
X023761Y019675D01*
X023819Y019701D01*
X023880Y019724D01*
X023941Y019743D01*
X024004Y019758D01*
X024067Y019769D01*
X024131Y019776D01*
X024195Y019780D01*
X024260Y019779D01*
X024324Y019775D01*
X024387Y019767D01*
X024451Y019755D01*
X024513Y019739D01*
X024574Y019719D01*
X024634Y019696D01*
X024693Y019669D01*
X024749Y019638D01*
X024804Y019605D01*
X024857Y019568D01*
X024907Y019527D01*
X024954Y019484D01*
X024999Y019438D01*
X025042Y019390D01*
X025081Y019339D01*
X025117Y019285D01*
X025149Y019230D01*
X025178Y019173D01*
X025204Y019114D01*
D12*
X003244Y004901D02*
X003244Y004783D01*
X006196Y004783D01*
X006196Y004901D01*
X006196Y005074D01*
X003244Y005074D01*
X003244Y004901D01*
X006196Y004901D01*
X006196Y005074D02*
X006196Y005394D01*
X006196Y005584D01*
X003244Y005584D01*
X003244Y005394D01*
X003244Y005074D01*
X003431Y005191D02*
X003527Y005191D01*
X003546Y005229D02*
X003412Y005229D01*
X003393Y005268D02*
X003565Y005268D01*
X003584Y005306D02*
X003373Y005306D01*
X003354Y005345D02*
X003604Y005345D01*
X003479Y005095D01*
X003354Y005345D01*
X003604Y005345D01*
X003507Y005152D02*
X003450Y005152D01*
X003470Y005114D02*
X003488Y005114D01*
X003244Y005394D02*
X006196Y005394D01*
X006196Y005584D02*
X006196Y006786D01*
X003244Y006786D01*
X003244Y005584D01*
X003460Y006181D02*
X003462Y006228D01*
X003468Y006275D01*
X003477Y006321D01*
X003491Y006366D01*
X003508Y006410D01*
X003529Y006453D01*
X003553Y006493D01*
X003580Y006532D01*
X003611Y006568D01*
X003644Y006601D01*
X003680Y006632D01*
X003719Y006659D01*
X003759Y006683D01*
X003802Y006704D01*
X003846Y006721D01*
X003891Y006735D01*
X003937Y006744D01*
X003984Y006750D01*
X004031Y006752D01*
X004078Y006750D01*
X004125Y006744D01*
X004171Y006735D01*
X004216Y006721D01*
X004260Y006704D01*
X004303Y006683D01*
X004343Y006659D01*
X004382Y006632D01*
X004418Y006601D01*
X004451Y006568D01*
X004482Y006532D01*
X004509Y006493D01*
X004533Y006453D01*
X004554Y006410D01*
X004571Y006366D01*
X004585Y006321D01*
X004594Y006275D01*
X004600Y006228D01*
X004602Y006181D01*
X004600Y006134D01*
X004594Y006087D01*
X004585Y006041D01*
X004571Y005996D01*
X004554Y005952D01*
X004533Y005909D01*
X004509Y005869D01*
X004482Y005830D01*
X004451Y005794D01*
X004418Y005761D01*
X004382Y005730D01*
X004343Y005703D01*
X004303Y005679D01*
X004260Y005658D01*
X004216Y005641D01*
X004171Y005627D01*
X004125Y005618D01*
X004078Y005612D01*
X004031Y005610D01*
X003984Y005612D01*
X003937Y005618D01*
X003891Y005627D01*
X003846Y005641D01*
X003802Y005658D01*
X003759Y005679D01*
X003719Y005703D01*
X003680Y005730D01*
X003644Y005761D01*
X003611Y005794D01*
X003580Y005830D01*
X003553Y005869D01*
X003529Y005909D01*
X003508Y005952D01*
X003491Y005996D01*
X003477Y006041D01*
X003468Y006087D01*
X003462Y006134D01*
X003460Y006181D01*
X003244Y006786D02*
X003244Y006973D01*
X006196Y006973D01*
X006196Y007657D01*
X003244Y007657D01*
X003244Y006973D01*
X003874Y007115D02*
X004181Y007115D01*
X004027Y007115D02*
X004027Y007575D01*
X003874Y007422D01*
X004506Y006461D02*
X004503Y006458D01*
X005249Y007115D02*
X005556Y007422D01*
X005556Y007499D01*
X005479Y007575D01*
X005326Y007575D01*
X005249Y007499D01*
X005249Y007115D02*
X005556Y007115D01*
X006196Y006973D02*
X006196Y006786D01*
X005884Y006461D02*
X005881Y006458D01*
X004838Y006181D02*
X004840Y006228D01*
X004846Y006275D01*
X004855Y006321D01*
X004869Y006366D01*
X004886Y006410D01*
X004907Y006453D01*
X004931Y006493D01*
X004958Y006532D01*
X004989Y006568D01*
X005022Y006601D01*
X005058Y006632D01*
X005097Y006659D01*
X005137Y006683D01*
X005180Y006704D01*
X005224Y006721D01*
X005269Y006735D01*
X005315Y006744D01*
X005362Y006750D01*
X005409Y006752D01*
X005456Y006750D01*
X005503Y006744D01*
X005549Y006735D01*
X005594Y006721D01*
X005638Y006704D01*
X005681Y006683D01*
X005721Y006659D01*
X005760Y006632D01*
X005796Y006601D01*
X005829Y006568D01*
X005860Y006532D01*
X005887Y006493D01*
X005911Y006453D01*
X005932Y006410D01*
X005949Y006366D01*
X005963Y006321D01*
X005972Y006275D01*
X005978Y006228D01*
X005980Y006181D01*
X005978Y006134D01*
X005972Y006087D01*
X005963Y006041D01*
X005949Y005996D01*
X005932Y005952D01*
X005911Y005909D01*
X005887Y005869D01*
X005860Y005830D01*
X005829Y005794D01*
X005796Y005761D01*
X005760Y005730D01*
X005721Y005703D01*
X005681Y005679D01*
X005638Y005658D01*
X005594Y005641D01*
X005549Y005627D01*
X005503Y005618D01*
X005456Y005612D01*
X005409Y005610D01*
X005362Y005612D01*
X005315Y005618D01*
X005269Y005627D01*
X005224Y005641D01*
X005180Y005658D01*
X005137Y005679D01*
X005097Y005703D01*
X005058Y005730D01*
X005022Y005761D01*
X004989Y005794D01*
X004958Y005830D01*
X004931Y005869D01*
X004907Y005909D01*
X004886Y005952D01*
X004869Y005996D01*
X004855Y006041D01*
X004846Y006087D01*
X004840Y006134D01*
X004838Y006181D01*
X013244Y005584D02*
X013244Y005394D01*
X013244Y005074D01*
X013244Y004901D01*
X013244Y004783D01*
X016196Y004783D01*
X016196Y004901D01*
X016196Y005074D01*
X013244Y005074D01*
X013244Y004901D02*
X016196Y004901D01*
X016196Y005074D02*
X016196Y005394D01*
X016196Y005584D01*
X013244Y005584D01*
X013244Y006786D01*
X016196Y006786D01*
X016196Y006973D01*
X016196Y007657D01*
X013244Y007657D01*
X013244Y006973D01*
X016196Y006973D01*
X016196Y006786D02*
X016196Y005584D01*
X016196Y005394D02*
X013244Y005394D01*
X013354Y005345D02*
X013604Y005345D01*
X013479Y005095D01*
X013354Y005345D01*
X013604Y005345D01*
X013584Y005306D02*
X013373Y005306D01*
X013393Y005268D02*
X013565Y005268D01*
X013546Y005229D02*
X013412Y005229D01*
X013431Y005191D02*
X013527Y005191D01*
X013507Y005152D02*
X013450Y005152D01*
X013470Y005114D02*
X013488Y005114D01*
X013460Y006181D02*
X013462Y006228D01*
X013468Y006275D01*
X013477Y006321D01*
X013491Y006366D01*
X013508Y006410D01*
X013529Y006453D01*
X013553Y006493D01*
X013580Y006532D01*
X013611Y006568D01*
X013644Y006601D01*
X013680Y006632D01*
X013719Y006659D01*
X013759Y006683D01*
X013802Y006704D01*
X013846Y006721D01*
X013891Y006735D01*
X013937Y006744D01*
X013984Y006750D01*
X014031Y006752D01*
X014078Y006750D01*
X014125Y006744D01*
X014171Y006735D01*
X014216Y006721D01*
X014260Y006704D01*
X014303Y006683D01*
X014343Y006659D01*
X014382Y006632D01*
X014418Y006601D01*
X014451Y006568D01*
X014482Y006532D01*
X014509Y006493D01*
X014533Y006453D01*
X014554Y006410D01*
X014571Y006366D01*
X014585Y006321D01*
X014594Y006275D01*
X014600Y006228D01*
X014602Y006181D01*
X014600Y006134D01*
X014594Y006087D01*
X014585Y006041D01*
X014571Y005996D01*
X014554Y005952D01*
X014533Y005909D01*
X014509Y005869D01*
X014482Y005830D01*
X014451Y005794D01*
X014418Y005761D01*
X014382Y005730D01*
X014343Y005703D01*
X014303Y005679D01*
X014260Y005658D01*
X014216Y005641D01*
X014171Y005627D01*
X014125Y005618D01*
X014078Y005612D01*
X014031Y005610D01*
X013984Y005612D01*
X013937Y005618D01*
X013891Y005627D01*
X013846Y005641D01*
X013802Y005658D01*
X013759Y005679D01*
X013719Y005703D01*
X013680Y005730D01*
X013644Y005761D01*
X013611Y005794D01*
X013580Y005830D01*
X013553Y005869D01*
X013529Y005909D01*
X013508Y005952D01*
X013491Y005996D01*
X013477Y006041D01*
X013468Y006087D01*
X013462Y006134D01*
X013460Y006181D01*
X013244Y006786D02*
X013244Y006973D01*
X013874Y007115D02*
X014181Y007115D01*
X014027Y007115D02*
X014027Y007575D01*
X013874Y007422D01*
X014506Y006461D02*
X014503Y006458D01*
X015249Y007115D02*
X015556Y007422D01*
X015556Y007499D01*
X015479Y007575D01*
X015326Y007575D01*
X015249Y007499D01*
X015249Y007115D02*
X015556Y007115D01*
X015884Y006461D02*
X015881Y006458D01*
X014838Y006181D02*
X014840Y006228D01*
X014846Y006275D01*
X014855Y006321D01*
X014869Y006366D01*
X014886Y006410D01*
X014907Y006453D01*
X014931Y006493D01*
X014958Y006532D01*
X014989Y006568D01*
X015022Y006601D01*
X015058Y006632D01*
X015097Y006659D01*
X015137Y006683D01*
X015180Y006704D01*
X015224Y006721D01*
X015269Y006735D01*
X015315Y006744D01*
X015362Y006750D01*
X015409Y006752D01*
X015456Y006750D01*
X015503Y006744D01*
X015549Y006735D01*
X015594Y006721D01*
X015638Y006704D01*
X015681Y006683D01*
X015721Y006659D01*
X015760Y006632D01*
X015796Y006601D01*
X015829Y006568D01*
X015860Y006532D01*
X015887Y006493D01*
X015911Y006453D01*
X015932Y006410D01*
X015949Y006366D01*
X015963Y006321D01*
X015972Y006275D01*
X015978Y006228D01*
X015980Y006181D01*
X015978Y006134D01*
X015972Y006087D01*
X015963Y006041D01*
X015949Y005996D01*
X015932Y005952D01*
X015911Y005909D01*
X015887Y005869D01*
X015860Y005830D01*
X015829Y005794D01*
X015796Y005761D01*
X015760Y005730D01*
X015721Y005703D01*
X015681Y005679D01*
X015638Y005658D01*
X015594Y005641D01*
X015549Y005627D01*
X015503Y005618D01*
X015456Y005612D01*
X015409Y005610D01*
X015362Y005612D01*
X015315Y005618D01*
X015269Y005627D01*
X015224Y005641D01*
X015180Y005658D01*
X015137Y005679D01*
X015097Y005703D01*
X015058Y005730D01*
X015022Y005761D01*
X014989Y005794D01*
X014958Y005830D01*
X014931Y005869D01*
X014907Y005909D01*
X014886Y005952D01*
X014869Y005996D01*
X014855Y006041D01*
X014846Y006087D01*
X014840Y006134D01*
X014838Y006181D01*
X017244Y005584D02*
X017244Y005394D01*
X017244Y005074D01*
X017244Y004901D01*
X017244Y004783D01*
X020196Y004783D01*
X020196Y004901D01*
X020196Y005074D01*
X017244Y005074D01*
X017244Y004901D02*
X020196Y004901D01*
X020196Y005074D02*
X020196Y005394D01*
X020196Y005584D01*
X017244Y005584D01*
X017244Y006786D01*
X020196Y006786D01*
X020196Y006973D01*
X020196Y007657D01*
X017244Y007657D01*
X017244Y006973D01*
X020196Y006973D01*
X020196Y006786D02*
X020196Y005584D01*
X020196Y005394D02*
X017244Y005394D01*
X017354Y005345D02*
X017479Y005095D01*
X017604Y005345D01*
X017354Y005345D01*
X017604Y005345D01*
X017584Y005306D02*
X017373Y005306D01*
X017393Y005268D02*
X017565Y005268D01*
X017546Y005229D02*
X017412Y005229D01*
X017431Y005191D02*
X017527Y005191D01*
X017507Y005152D02*
X017450Y005152D01*
X017470Y005114D02*
X017488Y005114D01*
X017460Y006181D02*
X017462Y006228D01*
X017468Y006275D01*
X017477Y006321D01*
X017491Y006366D01*
X017508Y006410D01*
X017529Y006453D01*
X017553Y006493D01*
X017580Y006532D01*
X017611Y006568D01*
X017644Y006601D01*
X017680Y006632D01*
X017719Y006659D01*
X017759Y006683D01*
X017802Y006704D01*
X017846Y006721D01*
X017891Y006735D01*
X017937Y006744D01*
X017984Y006750D01*
X018031Y006752D01*
X018078Y006750D01*
X018125Y006744D01*
X018171Y006735D01*
X018216Y006721D01*
X018260Y006704D01*
X018303Y006683D01*
X018343Y006659D01*
X018382Y006632D01*
X018418Y006601D01*
X018451Y006568D01*
X018482Y006532D01*
X018509Y006493D01*
X018533Y006453D01*
X018554Y006410D01*
X018571Y006366D01*
X018585Y006321D01*
X018594Y006275D01*
X018600Y006228D01*
X018602Y006181D01*
X018600Y006134D01*
X018594Y006087D01*
X018585Y006041D01*
X018571Y005996D01*
X018554Y005952D01*
X018533Y005909D01*
X018509Y005869D01*
X018482Y005830D01*
X018451Y005794D01*
X018418Y005761D01*
X018382Y005730D01*
X018343Y005703D01*
X018303Y005679D01*
X018260Y005658D01*
X018216Y005641D01*
X018171Y005627D01*
X018125Y005618D01*
X018078Y005612D01*
X018031Y005610D01*
X017984Y005612D01*
X017937Y005618D01*
X017891Y005627D01*
X017846Y005641D01*
X017802Y005658D01*
X017759Y005679D01*
X017719Y005703D01*
X017680Y005730D01*
X017644Y005761D01*
X017611Y005794D01*
X017580Y005830D01*
X017553Y005869D01*
X017529Y005909D01*
X017508Y005952D01*
X017491Y005996D01*
X017477Y006041D01*
X017468Y006087D01*
X017462Y006134D01*
X017460Y006181D01*
X017244Y006786D02*
X017244Y006973D01*
X017874Y007115D02*
X018181Y007115D01*
X018027Y007115D02*
X018027Y007575D01*
X017874Y007422D01*
X018506Y006461D02*
X018503Y006458D01*
X019249Y007115D02*
X019556Y007422D01*
X019556Y007499D01*
X019479Y007575D01*
X019326Y007575D01*
X019249Y007499D01*
X019249Y007115D02*
X019556Y007115D01*
X019884Y006461D02*
X019881Y006458D01*
X018838Y006181D02*
X018840Y006228D01*
X018846Y006275D01*
X018855Y006321D01*
X018869Y006366D01*
X018886Y006410D01*
X018907Y006453D01*
X018931Y006493D01*
X018958Y006532D01*
X018989Y006568D01*
X019022Y006601D01*
X019058Y006632D01*
X019097Y006659D01*
X019137Y006683D01*
X019180Y006704D01*
X019224Y006721D01*
X019269Y006735D01*
X019315Y006744D01*
X019362Y006750D01*
X019409Y006752D01*
X019456Y006750D01*
X019503Y006744D01*
X019549Y006735D01*
X019594Y006721D01*
X019638Y006704D01*
X019681Y006683D01*
X019721Y006659D01*
X019760Y006632D01*
X019796Y006601D01*
X019829Y006568D01*
X019860Y006532D01*
X019887Y006493D01*
X019911Y006453D01*
X019932Y006410D01*
X019949Y006366D01*
X019963Y006321D01*
X019972Y006275D01*
X019978Y006228D01*
X019980Y006181D01*
X019978Y006134D01*
X019972Y006087D01*
X019963Y006041D01*
X019949Y005996D01*
X019932Y005952D01*
X019911Y005909D01*
X019887Y005869D01*
X019860Y005830D01*
X019829Y005794D01*
X019796Y005761D01*
X019760Y005730D01*
X019721Y005703D01*
X019681Y005679D01*
X019638Y005658D01*
X019594Y005641D01*
X019549Y005627D01*
X019503Y005618D01*
X019456Y005612D01*
X019409Y005610D01*
X019362Y005612D01*
X019315Y005618D01*
X019269Y005627D01*
X019224Y005641D01*
X019180Y005658D01*
X019137Y005679D01*
X019097Y005703D01*
X019058Y005730D01*
X019022Y005761D01*
X018989Y005794D01*
X018958Y005830D01*
X018931Y005869D01*
X018907Y005909D01*
X018886Y005952D01*
X018869Y005996D01*
X018855Y006041D01*
X018846Y006087D01*
X018840Y006134D01*
X018838Y006181D01*
X019696Y026783D02*
X016744Y026783D01*
X016744Y026901D01*
X016744Y027074D01*
X019696Y027074D01*
X019696Y026901D01*
X016744Y026901D01*
X016744Y027074D02*
X016744Y027394D01*
X016744Y027584D01*
X019696Y027584D01*
X019696Y027394D01*
X019696Y027074D01*
X019696Y026901D02*
X019696Y026783D01*
X019696Y027394D02*
X016744Y027394D01*
X016854Y027345D02*
X016979Y027095D01*
X017104Y027345D01*
X016854Y027345D01*
X016862Y027328D02*
X017095Y027328D01*
X017076Y027290D02*
X016882Y027290D01*
X016901Y027251D02*
X017057Y027251D01*
X017038Y027213D02*
X016920Y027213D01*
X016939Y027174D02*
X017018Y027174D01*
X016999Y027136D02*
X016959Y027136D01*
X016978Y027097D02*
X016980Y027097D01*
X016744Y027584D02*
X016744Y028786D01*
X019696Y028786D01*
X019696Y028973D01*
X019696Y029657D01*
X016744Y029657D01*
X016744Y028973D01*
X019696Y028973D01*
X019696Y028786D02*
X019696Y027584D01*
X019381Y028458D02*
X019384Y028461D01*
X018338Y028181D02*
X018340Y028228D01*
X018346Y028275D01*
X018355Y028321D01*
X018369Y028366D01*
X018386Y028410D01*
X018407Y028453D01*
X018431Y028493D01*
X018458Y028532D01*
X018489Y028568D01*
X018522Y028601D01*
X018558Y028632D01*
X018597Y028659D01*
X018637Y028683D01*
X018680Y028704D01*
X018724Y028721D01*
X018769Y028735D01*
X018815Y028744D01*
X018862Y028750D01*
X018909Y028752D01*
X018956Y028750D01*
X019003Y028744D01*
X019049Y028735D01*
X019094Y028721D01*
X019138Y028704D01*
X019181Y028683D01*
X019221Y028659D01*
X019260Y028632D01*
X019296Y028601D01*
X019329Y028568D01*
X019360Y028532D01*
X019387Y028493D01*
X019411Y028453D01*
X019432Y028410D01*
X019449Y028366D01*
X019463Y028321D01*
X019472Y028275D01*
X019478Y028228D01*
X019480Y028181D01*
X019478Y028134D01*
X019472Y028087D01*
X019463Y028041D01*
X019449Y027996D01*
X019432Y027952D01*
X019411Y027909D01*
X019387Y027869D01*
X019360Y027830D01*
X019329Y027794D01*
X019296Y027761D01*
X019260Y027730D01*
X019221Y027703D01*
X019181Y027679D01*
X019138Y027658D01*
X019094Y027641D01*
X019049Y027627D01*
X019003Y027618D01*
X018956Y027612D01*
X018909Y027610D01*
X018862Y027612D01*
X018815Y027618D01*
X018769Y027627D01*
X018724Y027641D01*
X018680Y027658D01*
X018637Y027679D01*
X018597Y027703D01*
X018558Y027730D01*
X018522Y027761D01*
X018489Y027794D01*
X018458Y027830D01*
X018431Y027869D01*
X018407Y027909D01*
X018386Y027952D01*
X018369Y027996D01*
X018355Y028041D01*
X018346Y028087D01*
X018340Y028134D01*
X018338Y028181D01*
X018006Y028461D02*
X018003Y028458D01*
X016960Y028181D02*
X016962Y028228D01*
X016968Y028275D01*
X016977Y028321D01*
X016991Y028366D01*
X017008Y028410D01*
X017029Y028453D01*
X017053Y028493D01*
X017080Y028532D01*
X017111Y028568D01*
X017144Y028601D01*
X017180Y028632D01*
X017219Y028659D01*
X017259Y028683D01*
X017302Y028704D01*
X017346Y028721D01*
X017391Y028735D01*
X017437Y028744D01*
X017484Y028750D01*
X017531Y028752D01*
X017578Y028750D01*
X017625Y028744D01*
X017671Y028735D01*
X017716Y028721D01*
X017760Y028704D01*
X017803Y028683D01*
X017843Y028659D01*
X017882Y028632D01*
X017918Y028601D01*
X017951Y028568D01*
X017982Y028532D01*
X018009Y028493D01*
X018033Y028453D01*
X018054Y028410D01*
X018071Y028366D01*
X018085Y028321D01*
X018094Y028275D01*
X018100Y028228D01*
X018102Y028181D01*
X018100Y028134D01*
X018094Y028087D01*
X018085Y028041D01*
X018071Y027996D01*
X018054Y027952D01*
X018033Y027909D01*
X018009Y027869D01*
X017982Y027830D01*
X017951Y027794D01*
X017918Y027761D01*
X017882Y027730D01*
X017843Y027703D01*
X017803Y027679D01*
X017760Y027658D01*
X017716Y027641D01*
X017671Y027627D01*
X017625Y027618D01*
X017578Y027612D01*
X017531Y027610D01*
X017484Y027612D01*
X017437Y027618D01*
X017391Y027627D01*
X017346Y027641D01*
X017302Y027658D01*
X017259Y027679D01*
X017219Y027703D01*
X017180Y027730D01*
X017144Y027761D01*
X017111Y027794D01*
X017080Y027830D01*
X017053Y027869D01*
X017029Y027909D01*
X017008Y027952D01*
X016991Y027996D01*
X016977Y028041D01*
X016968Y028087D01*
X016962Y028134D01*
X016960Y028181D01*
X016744Y028786D02*
X016744Y028973D01*
X017374Y029115D02*
X017681Y029115D01*
X017527Y029115D02*
X017527Y029575D01*
X017374Y029422D01*
X018749Y029499D02*
X018826Y029575D01*
X018979Y029575D01*
X019056Y029499D01*
X019056Y029422D01*
X018749Y029115D01*
X019056Y029115D01*
X015196Y028973D02*
X015196Y029657D01*
X012244Y029657D01*
X012244Y028973D01*
X015196Y028973D01*
X015196Y028786D01*
X012244Y028786D01*
X012244Y027584D01*
X012244Y027394D01*
X012244Y027074D01*
X012244Y026901D01*
X012244Y026783D01*
X015196Y026783D01*
X015196Y026901D01*
X015196Y027074D01*
X012244Y027074D01*
X012244Y026901D02*
X015196Y026901D01*
X015196Y027074D02*
X015196Y027394D01*
X015196Y027584D01*
X012244Y027584D01*
X012244Y027394D02*
X015196Y027394D01*
X015196Y027584D02*
X015196Y028786D01*
X014884Y028461D02*
X014881Y028458D01*
X013838Y028181D02*
X013840Y028228D01*
X013846Y028275D01*
X013855Y028321D01*
X013869Y028366D01*
X013886Y028410D01*
X013907Y028453D01*
X013931Y028493D01*
X013958Y028532D01*
X013989Y028568D01*
X014022Y028601D01*
X014058Y028632D01*
X014097Y028659D01*
X014137Y028683D01*
X014180Y028704D01*
X014224Y028721D01*
X014269Y028735D01*
X014315Y028744D01*
X014362Y028750D01*
X014409Y028752D01*
X014456Y028750D01*
X014503Y028744D01*
X014549Y028735D01*
X014594Y028721D01*
X014638Y028704D01*
X014681Y028683D01*
X014721Y028659D01*
X014760Y028632D01*
X014796Y028601D01*
X014829Y028568D01*
X014860Y028532D01*
X014887Y028493D01*
X014911Y028453D01*
X014932Y028410D01*
X014949Y028366D01*
X014963Y028321D01*
X014972Y028275D01*
X014978Y028228D01*
X014980Y028181D01*
X014978Y028134D01*
X014972Y028087D01*
X014963Y028041D01*
X014949Y027996D01*
X014932Y027952D01*
X014911Y027909D01*
X014887Y027869D01*
X014860Y027830D01*
X014829Y027794D01*
X014796Y027761D01*
X014760Y027730D01*
X014721Y027703D01*
X014681Y027679D01*
X014638Y027658D01*
X014594Y027641D01*
X014549Y027627D01*
X014503Y027618D01*
X014456Y027612D01*
X014409Y027610D01*
X014362Y027612D01*
X014315Y027618D01*
X014269Y027627D01*
X014224Y027641D01*
X014180Y027658D01*
X014137Y027679D01*
X014097Y027703D01*
X014058Y027730D01*
X014022Y027761D01*
X013989Y027794D01*
X013958Y027830D01*
X013931Y027869D01*
X013907Y027909D01*
X013886Y027952D01*
X013869Y027996D01*
X013855Y028041D01*
X013846Y028087D01*
X013840Y028134D01*
X013838Y028181D01*
X013506Y028461D02*
X013503Y028458D01*
X012460Y028181D02*
X012462Y028228D01*
X012468Y028275D01*
X012477Y028321D01*
X012491Y028366D01*
X012508Y028410D01*
X012529Y028453D01*
X012553Y028493D01*
X012580Y028532D01*
X012611Y028568D01*
X012644Y028601D01*
X012680Y028632D01*
X012719Y028659D01*
X012759Y028683D01*
X012802Y028704D01*
X012846Y028721D01*
X012891Y028735D01*
X012937Y028744D01*
X012984Y028750D01*
X013031Y028752D01*
X013078Y028750D01*
X013125Y028744D01*
X013171Y028735D01*
X013216Y028721D01*
X013260Y028704D01*
X013303Y028683D01*
X013343Y028659D01*
X013382Y028632D01*
X013418Y028601D01*
X013451Y028568D01*
X013482Y028532D01*
X013509Y028493D01*
X013533Y028453D01*
X013554Y028410D01*
X013571Y028366D01*
X013585Y028321D01*
X013594Y028275D01*
X013600Y028228D01*
X013602Y028181D01*
X013600Y028134D01*
X013594Y028087D01*
X013585Y028041D01*
X013571Y027996D01*
X013554Y027952D01*
X013533Y027909D01*
X013509Y027869D01*
X013482Y027830D01*
X013451Y027794D01*
X013418Y027761D01*
X013382Y027730D01*
X013343Y027703D01*
X013303Y027679D01*
X013260Y027658D01*
X013216Y027641D01*
X013171Y027627D01*
X013125Y027618D01*
X013078Y027612D01*
X013031Y027610D01*
X012984Y027612D01*
X012937Y027618D01*
X012891Y027627D01*
X012846Y027641D01*
X012802Y027658D01*
X012759Y027679D01*
X012719Y027703D01*
X012680Y027730D01*
X012644Y027761D01*
X012611Y027794D01*
X012580Y027830D01*
X012553Y027869D01*
X012529Y027909D01*
X012508Y027952D01*
X012491Y027996D01*
X012477Y028041D01*
X012468Y028087D01*
X012462Y028134D01*
X012460Y028181D01*
X012244Y028786D02*
X012244Y028973D01*
X012874Y029115D02*
X013181Y029115D01*
X013027Y029115D02*
X013027Y029575D01*
X012874Y029422D01*
X014249Y029499D02*
X014326Y029575D01*
X014479Y029575D01*
X014556Y029499D01*
X014556Y029422D01*
X014249Y029115D01*
X014556Y029115D01*
X012604Y027345D02*
X012479Y027095D01*
X012354Y027345D01*
X012604Y027345D01*
X012595Y027328D02*
X012362Y027328D01*
X012382Y027290D02*
X012576Y027290D01*
X012557Y027251D02*
X012401Y027251D01*
X012420Y027213D02*
X012538Y027213D01*
X012518Y027174D02*
X012439Y027174D01*
X012459Y027136D02*
X012499Y027136D01*
X012480Y027097D02*
X012478Y027097D01*
D13*
X020121Y009687D02*
X020435Y009373D01*
X020278Y009373D02*
X020278Y009687D01*
X020435Y009687D02*
X020121Y009373D01*
X020121Y009530D02*
X020435Y009530D01*
D14*
X023720Y012970D02*
X023720Y013120D01*
X022720Y013970D02*
X022720Y014120D01*
X024720Y015320D02*
X024720Y015470D01*
X023720Y016320D02*
X023720Y016470D01*
X022720Y017320D02*
X022720Y017470D01*
X023720Y020970D02*
X023720Y021120D01*
X022720Y021470D02*
X022720Y021620D01*
X021220Y021970D02*
X021220Y022120D01*
X022720Y024820D02*
X022720Y024970D01*
X023720Y024470D02*
X023720Y024320D01*
X021220Y025320D02*
X021220Y025470D01*
X015470Y025720D02*
X015320Y025720D01*
X013220Y023470D02*
X013220Y023320D01*
X012120Y025720D02*
X011970Y025720D01*
X013220Y020120D02*
X013220Y019970D01*
X012120Y014720D02*
X011970Y014720D01*
X011970Y013220D02*
X012120Y013220D01*
X015320Y013220D02*
X015470Y013220D01*
X015470Y014720D02*
X015320Y014720D01*
X024720Y012120D02*
X024720Y011970D01*
D15*
X024720Y011800D03*
X024720Y012300D03*
X023720Y012800D03*
X023720Y013300D03*
X022720Y013800D03*
X022720Y014300D03*
X023720Y016140D03*
X023720Y016640D03*
X022720Y017140D03*
X022720Y017640D03*
X024720Y015640D03*
X024720Y015140D03*
X023720Y020800D03*
X023720Y021300D03*
X022720Y021300D03*
X022720Y021800D03*
X021220Y021800D03*
X021220Y022300D03*
X022720Y024640D03*
X022720Y025140D03*
X023720Y024640D03*
X023720Y024140D03*
X021220Y025140D03*
X021220Y025640D03*
X013220Y023640D03*
X013220Y023140D03*
X013220Y020300D03*
X013220Y019800D03*
D16*
X012300Y014720D03*
X011800Y014720D03*
X011800Y013220D03*
X012300Y013220D03*
X015140Y013220D03*
X015640Y013220D03*
X015640Y014720D03*
X015140Y014720D03*
X015140Y025720D03*
X015640Y025720D03*
X012300Y025720D03*
X011800Y025720D03*
D17*
X014220Y023620D02*
X014220Y022220D01*
X013720Y022220D01*
X013720Y022720D01*
X014220Y022220D02*
X014720Y022220D01*
X014720Y021720D01*
X014720Y021220D02*
X014220Y022220D01*
X013720Y021220D01*
X014220Y021220D01*
X014220Y019870D01*
X014220Y021220D02*
X014720Y021220D01*
X014720Y012720D02*
X014220Y012720D01*
X014220Y012220D01*
X015620Y012220D01*
X014220Y012220D02*
X014220Y011720D01*
X013720Y011720D01*
X013220Y011720D02*
X013220Y012220D01*
X013220Y012720D01*
X014220Y012220D01*
X013220Y011720D01*
X013220Y012220D02*
X011870Y012220D01*
M02*
