%
M48
M72
T01C0.0236
T02C0.0300
T03C0.0320
T04C0.0400
T05C0.0433
T06C0.0440
T07C0.0520
%
T01
X17720Y15220
X17720Y15220
X19720Y16220
X17720Y18220
X19220Y24220
X17720Y25720
X19720Y10220
X19720Y10220
T02
X23470Y18720
X23970Y18720
X24470Y18720
X24970Y18720
X24970Y27220
X24470Y27220
X23970Y27220
X23470Y27220
T03
X22720Y25720
X23720Y25220
X21220Y26220
X21220Y21220
X22720Y20720
X23720Y20220
X22720Y18220
X23720Y17220
X24720Y16220
X22720Y13220
X23720Y12220
X24720Y11220
X16220Y12220
X16220Y13220
X16220Y14720
X14220Y19270
X13220Y19220
X11220Y14720
X11220Y13220
X11270Y12220
X13220Y24220
X14220Y24220
X16220Y25720
X11220Y25720
T04
X10220Y24720
X10220Y23720
X10220Y22720
X10220Y18220
X10220Y17220
X10220Y16220
X10220Y11220
X10220Y10220
X10220Y9220
X15720Y19720
X15720Y20720
X15720Y21720
X15720Y22720
X15720Y23720
T05
X4031Y6181
X5409Y6181
X14031Y6181
X15409Y6181
X18031Y6181
X19409Y6181
X18909Y28181
X17531Y28181
X14409Y28181
X13031Y28181
T06
X17220Y23220
X17220Y22220
X17220Y21220
X17220Y20220
X17220Y19220
X17220Y18220
X17220Y17220
X17220Y16220
X17220Y15220
X17220Y14220
X17220Y13220
X17220Y12220
X17220Y11220
X17220Y10220
X20220Y10220
X20220Y11220
X20220Y12220
X20220Y13220
X20220Y14220
X20220Y15220
X20220Y16220
X20220Y17220
X20220Y18220
X20220Y19220
X20220Y20220
X20220Y21220
X20220Y22220
X20220Y23220
T07
X4220Y22210
X4220Y20240
X4220Y17210
X4220Y15240
X4220Y25740
X4220Y27710
M30
